<svg width="90" height="90" viewBox="0 0 90 90" fill="none" xmlns="http://www.w3.org/2000/svg">
<rect width="30" height="30" fill="black" fill-opacity="0" transform="scale(3)"/>
<rect width="20.0004" height="19.9997" fill="black" fill-opacity="0" transform="translate(15 15) scale(3)"/>
<path d="M23.116 30.1946C24.6845 29.0983 27.0489 29.3086 28.4572 30.4716L26.842 28.1239C25.5422 26.2701 26.0077 24.2644 27.8632 22.9629C29.7186 21.6665 32.2783 22.1136 33.5798 23.9724L48.3117 44.9666L48.4285 44.9149L34.9764 25.1521C33.6649 23.28 33.9101 20.9072 35.7823 19.5941C37.6544 18.2859 40.2374 18.7381 41.5489 20.6136L58.9356 45.1752C60.2488 47.049 59.6047 49.6153 57.7326 50.9268C57.4139 51.1504 57.0701 51.3039 56.7197 51.4257V66.6583H40.0339V61.4639C39.7902 61.2487 38.4203 60.1908 38.2268 59.9138L22.0965 35.998C20.7733 34.1141 21.2305 31.5161 23.116 30.1946Z" fill="#EF9645"/>
<path d="M19.4959 43.8569C19.4959 43.8569 17.6071 41.1037 20.3619 39.2165C23.1134 37.3294 25.0006 40.0809 25.0006 40.0809L33.7623 52.8589C34.0644 52.355 34.3947 51.8578 34.7635 51.3672L22.6028 33.6351C22.6028 33.6351 20.7157 30.8836 23.4688 28.9965C26.2203 27.1093 28.1075 29.8608 28.1075 29.8608L39.5457 46.5416C39.9712 46.1946 40.4067 45.8458 40.8555 45.5038L27.5952 26.1632C27.5952 26.1632 25.7081 23.4117 28.4612 21.5245C31.2127 19.6373 33.0999 22.3888 33.0999 22.3888L46.3602 41.7261C46.8474 41.4274 47.3296 41.1688 47.8135 40.8951L35.4192 22.821C35.4192 22.821 33.5321 20.0695 36.2836 18.1823C39.0351 16.2952 40.9222 19.0467 40.9222 19.0467L54.0273 38.1587L55.0769 39.6888L56.0196 41.0653C47.7635 46.7285 46.9776 57.3825 51.6946 64.262C52.6374 65.6386 54.014 64.6959 54.014 64.6959C48.3525 56.438 50.0811 47.159 58.339 41.4975L55.9045 29.3135C55.9045 29.3135 54.9951 26.1031 58.2038 25.1921C61.4142 24.2827 62.3252 27.4931 62.3252 27.4931L65.1368 35.8427C66.2514 39.1531 67.4378 42.4519 69.0079 45.5722C73.4413 54.3823 70.7933 65.3316 62.4337 71.0666C53.3148 77.3187 40.8488 74.9944 34.595 65.8772C34.2646 65.3934 33.9876 64.9211 33.724 64.4506L33.6505 64.5007L19.4959 43.8569V43.8569Z" fill="#FFDC5D"/>
<rect width="20.0004" height="19.9997" fill="black" fill-opacity="0" transform="translate(15 15) scale(3)"/>
<path d="M35.0167 68.3974C28.3423 68.3974 21.5979 61.653 21.5979 54.9786C21.5979 54.0559 20.9221 53.3101 19.9994 53.3101C19.0767 53.3101 18.2607 54.0559 18.2607 54.9786C18.2607 64.9902 25.0052 71.7346 35.0167 71.7346C35.9394 71.7346 36.6853 70.9187 36.6853 69.9959C36.6853 69.0732 35.9394 68.3974 35.0167 68.3974Z" fill="#5DADEC"/>
<path d="M26.6801 71.6614C21.6743 71.6614 18.3372 68.3242 18.3372 63.3185C18.3372 62.3957 17.5913 61.6499 16.6686 61.6499C15.7459 61.6499 15 62.3957 15 63.3185C15 69.9928 20.0058 74.9986 26.6801 74.9986C27.6028 74.9986 28.3487 74.2527 28.3487 73.33C28.3487 72.4073 27.6028 71.6614 26.6801 71.6614ZM55.0461 18.2666C54.125 18.2666 53.3775 19.0141 53.3775 19.9352C53.3775 20.8562 54.125 21.6038 55.0461 21.6038C61.7204 21.6038 68.3948 27.5923 68.3948 34.9525C68.3948 35.8735 69.1423 36.6211 70.0634 36.6211C70.9844 36.6211 71.732 35.8735 71.732 34.9525C71.732 25.7519 65.0576 18.2666 55.0461 18.2666Z" fill="#5DADEC"/>
<path d="M63.3912 15C62.4702 15 61.7227 15.6774 61.7227 16.5985C61.7227 17.5196 62.4702 18.3372 63.3912 18.3372C68.397 18.3372 71.6641 22.0498 71.6641 26.61C71.6641 27.5311 72.48 28.2786 73.4028 28.2786C74.3255 28.2786 75.0013 27.5311 75.0013 26.61C75.0013 20.2077 70.0656 15 63.3912 15Z" fill="#5DADEC"/>
</svg>
